<?xml version="1.0" encoding="utf-8"?>
<!-- Generator: Adobe Illustrator 23.0.6, SVG Export Plug-In . SVG Version: 6.00 Build 0)  -->
<svg version="1.1" id="Layer_1" xmlns="http://www.w3.org/2000/svg" xmlns:xlink="http://www.w3.org/1999/xlink" x="0px" y="0px"
	 viewBox="0 0 450 183.367" style="enable-background:new 0 0 450 183.367;" xml:space="preserve">
<g>
	<g>
		<g>
			<path style="fill:none;stroke:#E7E8E8;stroke-miterlimit:10;" d="M300.453,39.731c1.604,26.305-9.25,48.359-26.419,55.07
				c-3.561,1.392-9.699,3.025-18.28,1.67"/>
			<g>
				<polygon style="fill:#E7E8E8;" points="259.598,92.834 260.174,93.652 256.14,96.487 259.263,100.304 258.487,100.937 
					254.685,96.288 				"/>
			</g>
		</g>
	</g>
	<g>
		<g>
			<path style="fill:none;stroke:#E7E8E8;stroke-miterlimit:10;" d="M179.566,65.989c-6.566-0.891-11.505,0.129-14.911,1.342
				c-17.436,6.212-28.567,29.581-27.551,58.353"/>
			<g>
				<polygon style="fill:#E7E8E8;" points="176.715,61.602 175.957,62.255 179.18,65.987 175.222,68.929 175.82,69.732 
					180.639,66.148 				"/>
			</g>
		</g>
	</g>
	
		<ellipse style="fill:#FFD300;stroke:#000000;stroke-width:0.75;stroke-miterlimit:10;" cx="224.22" cy="107.217" rx="28.3" ry="15.5"/>
	<path style="fill:#FFD300;stroke:#000000;stroke-width:0.75;stroke-miterlimit:10;" d="M249.92,53.417v52.5
		c0,7.5-11.5,13.6-25.7,13.6c-14.2,0-25.7-6.1-25.7-13.6v-52.5"/>
	<path style="fill:#6B5701;stroke:#000000;stroke-width:0.75;stroke-miterlimit:10;" d="M249.92,79.854c0,11.03,0,17.705,0,28.735
		c0,4.727-11.5,10.927-25.7,10.927c-14.2,0-25.7-6.331-25.7-11.059l0-28.604c2.112,1.204,12.208,7.984,26.54,7.962
		C239.274,87.794,247.788,81.069,249.92,79.854z"/>
	<g>
		
			<ellipse style="fill:#FFD300;stroke:#000000;stroke-width:0.75;stroke-miterlimit:10;" cx="224.22" cy="55.707" rx="29.1" ry="14.117"/>
		
			<ellipse style="fill:#FFD300;stroke:#000000;stroke-width:0.75;stroke-miterlimit:10;" cx="224.22" cy="55.707" rx="29.1" ry="14.117"/>
		<path style="fill:#FFFFFF;stroke:#000000;stroke-width:0.75;stroke-miterlimit:10;" d="M224.22,42.282
			c15.6,0,28.3,6.063,28.3,13.424c0,7.448-12.7,13.424-28.3,13.424s-28.3-6.063-28.3-13.424
			C195.92,48.258,208.62,42.282,224.22,42.282 M224.22,40.897c-16.7,0-29.9,6.496-29.9,14.81s13.1,14.81,29.9,14.81
			c16.7,0,29.9-6.496,29.9-14.81S240.92,40.897,224.22,40.897L224.22,40.897z"/>
	</g>
</g>
</svg>
