<?xml version="1.0" encoding="utf-8"?>
<!-- Generator: Adobe Illustrator 23.0.6, SVG Export Plug-In . SVG Version: 6.00 Build 0)  -->
<svg version="1.1" id="Layer_1" xmlns="http://www.w3.org/2000/svg" xmlns:xlink="http://www.w3.org/1999/xlink" x="0px" y="0px"
	 viewBox="0 0 420 179.057" style="enable-background:new 0 0 420 179.057;" xml:space="preserve">
<g>
	<g>
		<g>
			<path style="fill:none;stroke:#E7E8E8;stroke-miterlimit:10;" d="M284.26,38.463c1.603,26.305-9.25,48.359-26.419,55.07
				c-3.561,1.392-9.699,3.025-18.28,1.671"/>
			<g>
				<polygon style="fill:#E7E8E8;" points="243.405,91.566 243.981,92.384 239.947,95.219 243.069,99.036 242.294,99.669 
					238.492,95.02 				"/>
			</g>
		</g>
	</g>
	<g>
		<g>
			<path style="fill:none;stroke:#E7E8E8;stroke-miterlimit:10;" d="M163.373,64.721c-6.566-0.89-11.505,0.129-14.911,1.343
				c-17.436,6.212-28.567,29.581-27.551,58.353"/>
			<g>
				<polygon style="fill:#E7E8E8;" points="160.522,60.334 159.764,60.988 162.986,64.72 159.029,67.661 159.626,68.464 
					164.446,64.88 				"/>
			</g>
		</g>
	</g>
	
		<ellipse style="fill:#FFD300;stroke:#000000;stroke-width:0.75;stroke-miterlimit:10;" cx="208.027" cy="105.949" rx="28.3" ry="15.5"/>
	<path style="fill:#FFD300;stroke:#000000;stroke-width:0.75;stroke-miterlimit:10;" d="M233.727,52.149v52.5
		c0,7.5-11.5,13.6-25.7,13.6c-14.2,0-25.7-6.1-25.7-13.6v-52.5"/>
	<path style="fill:#6B5701;stroke:#000000;stroke-width:0.75;stroke-miterlimit:10;" d="M233.727,78.587c0,11.03,0,17.705,0,28.735
		c0,4.727-11.5,10.927-25.7,10.927c-14.2,0-25.7-6.331-25.7-11.059l0-28.604c2.112,1.204,12.208,7.984,26.54,7.962
		C223.081,86.527,231.595,79.801,233.727,78.587z"/>
	<g>
		
			<ellipse style="fill:#FFD300;stroke:#000000;stroke-width:0.75;stroke-miterlimit:10;" cx="208.027" cy="54.439" rx="29.1" ry="14.117"/>
		
			<ellipse style="fill:#FFD300;stroke:#000000;stroke-width:0.75;stroke-miterlimit:10;" cx="208.027" cy="54.439" rx="29.1" ry="14.117"/>
		<path style="fill:#FFFFFF;stroke:#000000;stroke-width:0.75;stroke-miterlimit:10;" d="M208.027,41.015
			c15.6,0,28.3,6.063,28.3,13.424c0,7.448-12.7,13.424-28.3,13.424s-28.3-6.063-28.3-13.424
			C179.727,46.991,192.427,41.015,208.027,41.015 M208.027,39.629c-16.7,0-29.9,6.496-29.9,14.81s13.1,14.81,29.9,14.81
			c16.7,0,29.9-6.496,29.9-14.81S224.727,39.629,208.027,39.629L208.027,39.629z"/>
	</g>
</g>
</svg>
