<?xml version="1.0" encoding="utf-8"?>
<!-- Generator: Adobe Illustrator 23.0.6, SVG Export Plug-In . SVG Version: 6.00 Build 0)  -->
<svg version="1.1" id="Layer_1" xmlns="http://www.w3.org/2000/svg" xmlns:xlink="http://www.w3.org/1999/xlink" x="0px" y="0px"
	 viewBox="0 0 450 180.869" style="enable-background:new 0 0 450 180.869;" xml:space="preserve">
<g>
	<g>
		<g>
			<path style="fill:none;stroke:#E7E8E8;stroke-miterlimit:10;" d="M306.774,39.468c1.604,26.305-9.25,48.359-26.419,55.07
				c-3.561,1.392-9.699,3.025-18.28,1.671"/>
			<g>
				<polygon style="fill:#E7E8E8;" points="265.919,92.571 266.495,93.389 262.461,96.224 265.583,100.041 264.808,100.674 
					261.006,96.025 				"/>
			</g>
		</g>
	</g>
	<g>
		<g>
			<path style="fill:none;stroke:#E7E8E8;stroke-miterlimit:10;" d="M193.55,64.995c-11.025-1.948-18.725,0.463-22.574,2.073
				c-18.449,7.719-29.878,31.122-27.551,58.353"/>
			<g>
				<polygon style="fill:#E7E8E8;" points="190.897,60.479 190.111,61.098 193.166,64.969 189.082,67.733 189.643,68.561 
					194.616,65.194 				"/>
			</g>
		</g>
	</g>
	
		<ellipse style="fill:#FFD300;stroke:#000000;stroke-width:0.75;stroke-miterlimit:10;" cx="230.541" cy="106.954" rx="28.3" ry="15.5"/>
	<path style="fill:#FFD300;stroke:#000000;stroke-width:0.75;stroke-miterlimit:10;" d="M256.241,53.154v52.5
		c0,7.5-11.5,13.6-25.7,13.6c-14.2,0-25.7-6.1-25.7-13.6v-52.5"/>
	<path style="fill:#6B5701;stroke:#000000;stroke-width:0.75;stroke-miterlimit:10;" d="M256.241,79.592c0,11.03,0,17.705,0,28.735
		c0,4.727-11.5,10.927-25.7,10.927c-14.2,0-25.7-6.331-25.7-11.059l0-28.604c2.112,1.204,12.208,7.984,26.54,7.962
		C245.595,87.532,254.109,80.806,256.241,79.592z"/>
	<g>
		
			<ellipse style="fill:#FFD300;stroke:#000000;stroke-width:0.75;stroke-miterlimit:10;" cx="230.541" cy="55.444" rx="29.1" ry="14.117"/>
		
			<ellipse style="fill:#FFD300;stroke:#000000;stroke-width:0.75;stroke-miterlimit:10;" cx="230.541" cy="55.444" rx="29.1" ry="14.117"/>
		<path style="fill:#FFFFFF;stroke:#000000;stroke-width:0.75;stroke-miterlimit:10;" d="M230.541,42.02
			c15.6,0,28.3,6.063,28.3,13.424c0,7.448-12.7,13.424-28.3,13.424s-28.3-6.063-28.3-13.424
			C202.241,47.996,214.941,42.02,230.541,42.02 M230.541,40.634c-16.7,0-29.9,6.496-29.9,14.81s13.1,14.81,29.9,14.81
			c16.7,0,29.9-6.496,29.9-14.81S247.241,40.634,230.541,40.634L230.541,40.634z"/>
	</g>
</g>
</svg>
