<?xml version="1.0" encoding="utf-8"?>
<!-- Generator: Adobe Illustrator 23.0.6, SVG Export Plug-In . SVG Version: 6.00 Build 0)  -->
<svg version="1.1" id="Layer_1" xmlns="http://www.w3.org/2000/svg" xmlns:xlink="http://www.w3.org/1999/xlink" x="0px" y="0px"
	 viewBox="0 0 320 184.08" style="enable-background:new 0 0 320 184.08;" xml:space="preserve">
<g>
	<g>
		<g>
			<path style="fill:none;stroke:#E7E8E8;stroke-miterlimit:10;" d="M235.979,39.837c1.603,26.305-9.25,48.359-26.419,55.07
				c-3.561,1.392-9.699,3.025-18.28,1.67"/>
			<g>
				<polygon style="fill:#E7E8E8;" points="195.125,92.941 195.701,93.759 191.667,96.594 194.789,100.411 194.014,101.044 
					190.212,96.394 				"/>
			</g>
		</g>
	</g>
	<g>
		<g>
			<path style="fill:none;stroke:#E7E8E8;stroke-miterlimit:10;" d="M115.093,66.096c-6.566-0.891-11.505,0.129-14.911,1.342
				c-17.436,6.212-28.567,29.581-27.551,58.353"/>
			<g>
				<polygon style="fill:#E7E8E8;" points="112.242,61.709 111.484,62.362 114.706,66.094 110.749,69.036 111.346,69.839 
					116.166,66.255 				"/>
			</g>
		</g>
	</g>
	
		<ellipse style="fill:#FFD300;stroke:#000000;stroke-width:0.75;stroke-miterlimit:10;" cx="159.747" cy="107.324" rx="28.3" ry="15.5"/>
	<path style="fill:#FFD300;stroke:#000000;stroke-width:0.75;stroke-miterlimit:10;" d="M185.447,53.524v52.5
		c0,7.5-11.5,13.6-25.7,13.6c-14.2,0-25.7-6.1-25.7-13.6v-52.5"/>
	<path style="fill:#6B5701;stroke:#000000;stroke-width:0.75;stroke-miterlimit:10;" d="M185.447,79.961c0,11.03,0,17.705,0,28.735
		c0,4.727-11.5,10.927-25.7,10.927c-14.2,0-25.7-6.331-25.7-11.059l0-28.604c2.112,1.204,12.208,7.984,26.54,7.962
		C174.801,87.901,183.315,81.176,185.447,79.961z"/>
	<g>
		
			<ellipse style="fill:#FFD300;stroke:#000000;stroke-width:0.75;stroke-miterlimit:10;" cx="159.747" cy="55.813" rx="29.1" ry="14.117"/>
		
			<ellipse style="fill:#FFD300;stroke:#000000;stroke-width:0.75;stroke-miterlimit:10;" cx="159.747" cy="55.813" rx="29.1" ry="14.117"/>
		<path style="fill:#FFFFFF;stroke:#000000;stroke-width:0.75;stroke-miterlimit:10;" d="M159.747,42.389
			c15.6,0,28.3,6.063,28.3,13.424c0,7.448-12.7,13.424-28.3,13.424s-28.3-6.063-28.3-13.424
			C131.447,48.365,144.147,42.389,159.747,42.389 M159.747,41.003c-16.7,0-29.9,6.496-29.9,14.81s13.1,14.81,29.9,14.81
			c16.7,0,29.9-6.496,29.9-14.81S176.447,41.003,159.747,41.003L159.747,41.003z"/>
	</g>
</g>
</svg>
